<svg width="772" height="248" viewBox="0 0 772 248" fill="none" xmlns="http://www.w3.org/2000/svg">
<path fill-rule="evenodd" clip-rule="evenodd" d="M190.849 196H155.265L138.524 149H52.0469L35.3038 196H0L71.9575 0H119.16L190.849 196ZM95.7046 28.88H94.864L63.4335 117H127.166L95.7046 28.88ZM205.577 196V0.0800781H238.079V196H205.577ZM330.301 200C372.89 200 402.99 170.12 402.99 124.76C402.99 79.4001 372.89 49 330.301 49C287.433 49 257.652 79.4001 257.652 124.76C257.652 170.12 287.433 200 330.301 200ZM330.301 172.5C304.244 172.5 289.314 152.2 289.314 124.76C289.314 97.0401 304.244 76.5 330.301 76.5C356.079 76.5 371.329 97.0401 371.329 124.76C371.329 152.2 356.079 172.5 330.301 172.5ZM455.226 196H422.724V53H454.666V77C462.891 60.78 474.679 49 497.094 49C533.639 49 548.209 72.24 548.209 105.56V196H515.987V112.28C515.987 89.88 508.422 77.32 489.249 77.32C469.075 77.32 455.226 92.68 455.226 128.8V196ZM606.49 32.0001V0.0800781H573.467V32.0001H606.49ZM573.187 196H605.689V53.0001H573.187V196ZM738.937 77.28V53H771.999V248H738.377V171.08H738.096C733.053 183.68 717.362 200 692.145 200C652.639 200 626.901 169.12 626.901 123.2C626.901 77.56 652.359 49 692.145 49C717.362 49 733.613 63.84 738.657 77.28H738.937ZM659.123 123.2C659.123 151.76 671.411 173.6 698.87 173.6C727.449 173.6 740.898 149.52 740.898 123.2C740.898 97.72 726.889 73.64 698.87 73.64C671.972 73.64 659.123 95.2 659.123 123.2Z" fill="#444444"/>
</svg>
