<svg width="150" height="150" viewBox="0 0 150 150" fill="none" xmlns="http://www.w3.org/2000/svg">
<path d="M96.9697 91.5242C87.1137 101.38 81.5782 114.746 81.5782 128.683V141.554C81.5782 141.974 81.2331 142.319 80.8131 142.319H74.6475C74.2274 142.319 73.8824 141.974 73.8824 141.554V128.683C73.8824 99.655 50.36 76.1326 21.3321 76.1326H8.46085C8.0408 76.1326 7.69577 75.7876 7.69577 75.3675V69.2019C7.69577 68.7819 8.0408 68.4368 8.46085 68.4368H21.3321C50.345 68.4368 73.8824 44.9145 73.8824 15.9016V3.84038C73.8824 1.72517 72.1572 0 70.027 0C69.0069 0 68.0318 0.405041 67.3117 1.12511L1.12511 67.3117C0.405041 68.0318 0 69.0069 0 70.027V74.5425C0 75.5626 0.405041 76.5377 1.12511 77.2577L72.7573 148.875C73.4774 149.595 74.4525 150 75.4726 150H79.973C80.9931 150 81.9682 149.595 82.6883 148.875L148.875 82.6883C150.375 81.1881 150.375 78.7429 148.875 77.2427C148.155 76.5227 147.18 76.1176 146.16 76.1176H134.113C120.177 76.1176 106.811 81.6532 96.9697 91.5092" fill="#F6F6F2"/>
</svg>
